<?xml version="1.0" standalone="no"?>
<!DOCTYPE svg PUBLIC "-//W3C//DTD SVG 20010904//EN"
 "http://www.w3.org/TR/2001/REC-SVG-20010904/DTD/svg10.dtd">
<svg version="1.0" xmlns="http://www.w3.org/2000/svg"
 width="300.000000pt" height="313.000000pt" viewBox="0 0 300.000000 313.000000"
 preserveAspectRatio="xMidYMid meet">
<metadata>
Created by potrace 1.10, written by Peter Selinger 2001-2011
</metadata>
<g transform="translate(0.000000,313.000000) scale(0.100000,-0.100000)"
fill="#000000" stroke="none">
<path d="M1470 2718 c-66 -44 -71 -129 -13 -190 14 -15 25 -29 22 -31 -2 -2
-38 -10 -79 -18 -41 -9 -83 -19 -92 -23 -14 -6 -18 -4 -18 10 0 11 -10 52 -22
92 -22 77 -45 99 -79 81 -27 -14 -29 -33 -8 -110 22 -87 23 -109 7 -109 -21 0
-191 -106 -241 -150 l-48 -42 -59 56 c-62 59 -79 66 -104 40 -27 -26 -18 -47
44 -109 l60 -59 -29 -31 c-16 -16 -34 -40 -40 -52 -11 -22 -12 -22 -82 32 -39
30 -79 55 -89 55 -19 0 -50 -35 -50 -57 0 -17 197 -163 220 -163 12 0 40 28
74 73 63 84 160 182 231 233 75 54 199 111 295 135 146 36 343 16 492 -49 131
-58 298 -200 384 -327 29 -43 46 -60 63 -60 12 0 64 32 116 70 77 56 95 75 95
96 0 30 -17 49 -43 49 -10 0 -49 -25 -88 -55 -38 -31 -69 -51 -69 -45 0 6 -19
31 -42 56 -41 45 -42 47 -23 60 11 8 41 35 67 60 42 41 46 47 36 69 -22 49
-54 41 -130 -33 l-47 -45 -53 45 c-67 58 -165 121 -223 145 -31 12 -44 23 -42
33 37 133 41 152 31 167 -38 60 -76 32 -100 -75 -10 -43 -18 -78 -19 -79 0 -1
-25 4 -55 12 -30 8 -74 15 -97 15 -47 0 -54 11 -22 38 57 48 64 116 16 168
-43 48 -97 56 -147 22z m115 -43 l30 -25 -40 19 c-48 24 -75 19 -98 -17 -9
-15 -17 -21 -17 -13 0 24 42 61 69 61 14 0 40 -11 56 -25z m-27 -27 c28 -28 1
-75 -38 -63 -14 4 -20 15 -20 34 0 15 3 31 7 34 10 11 38 8 51 -5z m26 -90
c-9 -18 -21 -36 -26 -39 -5 -3 2 -20 16 -36 22 -26 35 -32 88 -37 88 -9 107
-8 127 6 10 7 19 15 19 18 1 7 9 32 18 55 10 27 11 32 13 52 1 12 4 14 12 6 7
-7 6 -29 -5 -74 -14 -60 -14 -66 3 -89 9 -14 33 -33 52 -42 19 -9 39 -21 45
-25 5 -4 30 -19 55 -32 24 -13 67 -43 94 -66 76 -64 86 -65 155 -11 32 25 62
46 66 46 5 0 -15 -24 -43 -52 -59 -62 -65 -74 -47 -109 13 -27 88 -99 103 -99
4 0 25 11 45 25 95 64 133 66 49 2 -27 -20 -53 -41 -59 -45 -39 -33 -52 -32
-83 3 -17 20 -31 40 -31 44 0 13 -167 181 -179 181 -6 0 -11 4 -11 9 0 5 -17
20 -37 32 -21 13 -40 25 -43 28 -14 16 -187 91 -210 91 -9 0 -20 3 -23 7 -8 7
-10 7 -137 21 -146 16 -235 4 -370 -50 -65 -26 -151 -76 -205 -119 -64 -50
-215 -203 -215 -217 0 -4 -13 -21 -30 -37 -29 -28 -38 -28 -70 5 -3 3 -32 25
-64 49 -33 25 -55 46 -48 49 11 3 104 -55 110 -70 9 -21 53 -5 88 32 74 78 74
91 1 167 -22 24 -37 46 -33 50 4 4 10 2 14 -4 4 -6 27 -27 51 -47 52 -44 60
-42 153 26 68 51 106 75 168 106 68 33 82 72 59 155 -6 21 -8 44 -6 50 6 18
27 -29 33 -71 6 -52 37 -76 89 -67 22 3 58 9 80 12 22 3 48 9 57 14 26 14 33
55 14 84 -20 30 -20 35 -1 35 8 0 15 -4 15 -10 0 -16 60 -12 76 5 24 23 26 18
8 -17z"/>
<path d="M1552 2254 c-32 -22 -26 -65 10 -78 53 -19 91 47 46 78 -28 20 -28
20 -56 0z"/>
<path d="M1355 2234 c-9 -9 -15 -28 -13 -43 6 -49 88 -37 88 13 0 43 -44 61
-75 30z"/>
<path d="M1728 2204 c-17 -36 0 -59 43 -59 30 0 34 3 37 28 7 57 -57 81 -80
31z"/>
<path d="M1176 2154 c-21 -21 -20 -47 2 -67 23 -21 36 -21 56 -1 22 21 20 61
-3 74 -27 14 -37 13 -55 -6z"/>
<path d="M1374 2019 c-18 -20 -19 -45 -24 -381 l-5 -360 -28 -24 c-52 -44
-118 -29 -138 33 -17 53 -27 63 -66 63 -45 0 -69 -14 -89 -52 -33 -63 6 -144
94 -195 41 -25 57 -28 132 -28 68 0 93 5 126 22 49 26 90 72 118 133 20 43 21
61 21 403 l0 359 -28 24 c-36 31 -87 32 -113 3z m84 -35 l22 -15 0 -334 c-1
-362 -6 -401 -57 -456 -69 -74 -202 -94 -291 -42 -79 47 -106 123 -56 162 32
25 50 18 75 -30 46 -91 166 -93 212 -5 20 39 21 58 23 366 2 179 6 335 9 348
6 26 31 29 63 6z"/>
<path d="M1601 2023 c-32 -27 -39 -85 -12 -112 21 -21 29 -21 233 -19 l211 3
20 27 c23 31 18 67 -15 98 -20 19 -35 20 -219 20 -173 0 -199 -2 -218 -17z
m397 -29 c15 -3 22 -12 22 -28 0 -43 -16 -46 -203 -44 -153 3 -179 5 -194 21
-14 13 -15 21 -7 35 9 14 32 18 130 22 122 5 211 3 252 -6z"/>
<path d="M1030 2010 c-11 -11 -20 -24 -20 -30 0 -15 38 -50 54 -50 14 0 46 36
46 52 0 11 -38 48 -50 48 -5 0 -19 -9 -30 -20z"/>
<path d="M934 1852 c-30 -20 -20 -62 17 -75 22 -7 59 19 59 42 0 34 -46 54
-76 33z"/>
<path d="M543 1781 c-117 -29 -194 -158 -163 -272 29 -107 108 -169 217 -169
95 0 184 62 214 150 l11 30 88 0 c90 0 120 11 120 45 0 34 -30 45 -124 45
l-92 0 -13 35 c-35 99 -155 162 -258 136z m148 -57 c17 -8 45 -39 63 -67 19
-29 40 -58 47 -64 8 -6 48 -15 89 -19 l75 -8 -69 -7 c-39 -4 -74 -6 -78 -3 -4
3 -8 -2 -8 -10 0 -9 -4 -16 -10 -16 -5 0 -16 -15 -23 -33 -32 -76 -135 -136
-210 -122 -121 23 -189 154 -137 264 26 54 68 91 113 98 17 3 34 7 37 10 8 8
80 -7 111 -23z"/>
<path d="M500 1671 c-74 -71 -75 -146 -2 -217 62 -60 155 -54 210 12 36 44 45
84 32 135 -11 41 -64 104 -79 94 -5 -3 -12 -1 -16 5 -4 6 -29 10 -57 9 -43 -2
-56 -8 -88 -38z m169 -16 c83 -70 47 -194 -61 -211 -48 -8 -99 23 -123 73 -16
33 -16 42 -4 77 28 80 126 112 188 61z"/>
<path d="M562 1600 c-25 -23 -27 -47 -8 -72 15 -21 66 -24 84 -6 18 18 14 63
-6 81 -25 22 -44 21 -70 -3z"/>
<path d="M1605 1765 l-25 -24 0 -315 0 -315 26 -20 c35 -28 77 -26 111 3 l28
24 -3 151 -3 151 66 0 c101 0 145 35 145 114 0 23 -9 41 -30 61 -27 26 -38 30
-103 32 l-72 2 0 56 c0 50 -4 60 -28 81 -37 31 -81 31 -112 -1z m89 -37 c9
-12 16 -39 16 -58 0 -54 30 -77 107 -82 73 -5 93 -19 93 -64 0 -44 -30 -64
-109 -73 -89 -11 -89 -10 -93 -171 -2 -117 -6 -142 -21 -157 -16 -16 -20 -16
-45 -3 l-27 16 0 290 c0 232 3 294 14 307 19 24 47 21 65 -5z"/>
<path d="M2409 1777 c-73 -27 -130 -83 -144 -140 -7 -27 -7 -27 -101 -27 -92
0 -95 -1 -106 -26 -22 -48 -3 -59 106 -62 84 -2 96 -5 96 -20 0 -10 14 -39 30
-66 83 -130 292 -126 374 7 89 145 -2 326 -172 343 -27 2 -63 -2 -83 -9z m157
-52 c8 -10 14 -15 14 -10 0 19 52 -43 70 -83 21 -48 21 -87 -3 -143 -56 -136
-249 -153 -330 -30 -15 22 -27 44 -27 49 0 5 -8 16 -18 26 -17 14 -40 18 -157
25 -18 2 -19 2 -3 12 10 5 24 9 30 8 7 -1 38 -1 70 0 56 1 56 1 83 47 54 93
109 126 199 121 43 -3 62 -8 72 -22z"/>
<path d="M2398 1689 c-120 -89 -67 -279 78 -279 71 0 147 84 146 162 -2 103
-144 177 -224 117z m158 -43 c29 -29 34 -41 34 -80 0 -119 -149 -170 -210 -71
-51 83 3 185 99 185 36 0 49 -6 77 -34z"/>
<path d="M2443 1596 c-24 -21 -26 -27 -18 -52 8 -22 18 -30 41 -32 57 -6 84
48 44 88 -26 26 -33 25 -67 -4z"/>
<path d="M2075 1290 c-17 -18 -17 -21 -1 -45 26 -39 86 -26 86 18 0 47 -52 64
-85 27z"/>
<path d="M648 1102 c-98 -75 -115 -104 -78 -134 12 -10 25 -18 29 -18 4 0 38
25 75 56 l68 56 43 -48 43 -49 -60 -63 c-57 -59 -59 -64 -45 -85 26 -40 64
-34 118 19 l48 47 64 -60 c63 -59 186 -137 233 -149 13 -3 24 -7 24 -8 0 0
-12 -35 -26 -76 -27 -81 -25 -113 7 -131 37 -19 66 28 94 154 4 22 10 27 23
22 34 -14 88 -25 130 -25 23 0 42 -4 42 -9 0 -5 -13 -23 -29 -40 -37 -39 -46
-83 -25 -126 38 -81 140 -93 198 -24 40 47 31 115 -23 163 -30 27 -26 36 17
36 20 0 63 6 95 14 43 10 59 11 62 2 1 -6 13 -45 26 -86 23 -71 26 -75 53 -75
55 0 56 20 9 185 -3 11 19 27 72 53 81 40 157 92 217 149 l36 34 50 -48 c51
-49 86 -60 110 -36 25 25 13 56 -45 106 l-57 50 31 35 c17 20 36 44 41 53 8
15 18 10 82 -40 67 -52 74 -55 94 -43 12 8 22 26 24 40 3 22 -10 36 -91 96
-57 44 -103 71 -118 71 -18 -1 -34 -16 -63 -61 -165 -254 -436 -409 -710 -409
-129 0 -220 20 -324 70 -100 48 -160 88 -231 155 -56 52 -173 197 -184 228
-13 35 -58 20 -149 -51z m156 -28 c55 -83 224 -246 298 -287 69 -38 202 -94
258 -108 30 -8 214 -23 245 -21 6 0 28 5 50 11 22 5 51 12 65 15 68 13 269
104 304 138 7 7 26 24 42 37 51 42 133 121 127 121 -4 0 2 9 13 19 10 10 35
42 54 69 19 28 40 53 46 55 17 8 64 -19 114 -63 53 -47 47 -65 -7 -23 -62 49
-74 53 -104 37 -34 -17 -89 -99 -82 -123 2 -10 22 -37 45 -60 22 -24 37 -45
34 -48 -6 -6 -44 17 -68 41 -33 32 -60 29 -118 -14 -30 -22 -56 -44 -59 -48
-8 -10 -110 -82 -117 -82 -3 0 -25 -9 -50 -20 -58 -27 -70 -52 -54 -116 24
-102 24 -102 1 -66 -12 18 -21 41 -21 52 0 10 -11 31 -24 46 l-23 28 -86 -12
c-48 -6 -96 -16 -107 -22 -27 -14 -25 -43 5 -88 14 -20 25 -48 25 -62 -1 -29
-21 -60 -40 -60 -9 0 -9 4 -2 13 22 27 18 68 -9 89 -25 19 -28 19 -58 4 -19
-11 -32 -25 -32 -39 -2 -22 -2 -22 -6 -1 -2 12 5 37 16 55 42 68 27 89 -74
104 -27 4 -58 11 -68 17 -33 17 -73 -8 -87 -55 -7 -23 -18 -53 -26 -67 -12
-23 -13 -24 -14 -4 0 12 6 39 14 60 24 70 13 87 -94 143 -36 19 -90 55 -120
80 -102 87 -112 92 -146 75 -16 -8 -40 -26 -55 -40 -24 -23 -49 -32 -49 -18 0
4 20 29 45 55 52 55 56 84 20 123 -13 14 -21 26 -17 26 4 0 -4 9 -18 20 -28
22 -70 26 -88 8 -7 -7 -12 -9 -12 -4 0 4 -10 -4 -22 -17 -27 -28 -68 -52 -68
-39 0 13 139 122 154 122 7 0 30 -25 50 -56z m747 -564 c34 -19 18 -70 -23
-70 -33 0 -43 53 -14 72 14 10 14 10 37 -2z"/>
<path d="M1990 1155 c-23 -27 -1 -69 37 -73 28 -3 33 1 39 24 4 15 2 34 -3 43
-14 22 -57 25 -73 6z"/>
<path d="M1880 1020 c-23 -23 -24 -33 -10 -61 14 -25 55 -24 73 2 19 27 11 54
-19 68 -20 9 -28 7 -44 -9z"/>
<path d="M1172 998 c-28 -28 -7 -78 33 -78 12 0 26 5 33 12 7 7 12 21 12 33 0
12 -5 26 -12 33 -7 7 -21 12 -33 12 -12 0 -26 -5 -33 -12z"/>
<path d="M1702 938 c-7 -7 -12 -21 -12 -33 0 -12 5 -26 12 -33 7 -7 21 -12 33
-12 12 0 26 5 33 12 7 7 12 21 12 33 0 12 -5 26 -12 33 -7 7 -21 12 -33 12
-12 0 -26 -5 -33 -12z"/>
<path d="M1330 919 c-9 -16 -8 -26 5 -45 25 -39 85 -27 85 17 0 45 -70 67 -90
28z"/>
<path d="M1527 912 c-32 -35 -15 -82 28 -82 12 0 26 5 33 12 19 19 15 66 -7
78 -27 14 -35 13 -54 -8z"/>
</g>
</svg>
